# xmcd
# Copyright (C) 1995-1998 Ti Kan
#
# Track frame offsets:
#       183
#       22585
#       46535
#       66223
#       74795
#       87610
#       106323
#       125605
#       144820
#       157455
#       169035
#       185948
#       213475
#       237015
#
# Disc length: 3316 seconds
#
# Revision: 0
# Processed by: cddbd v1.5.2PL0 Copyright (c) Steve Scherf et al.
# Submitted via: CD-Import v1.0
#
DISCID=c90cf20e
DTITLE=Depeche Mode - Black Celebration
DYEAR=1986
DGENRE=
TTITLE0=Black Celebration
TTITLE1=Fly On The Windscreen - Final
TTITLE2=A Question Of Lust
TTITLE3=Sometimes
TTITLE4=It Doesn't Matter Two
TTITLE5=A Question Of Time
TTITLE6=Stripped
TTITLE7=Here Is The House
TTITLE8=World Full Of Nothing
TTITLE9=Dressed In Black
TTITLE10=New Dress
TTITLE11=Breathing In Fumes
TTITLE12=But Not Tonight
TTITLE13=Black Day
EXTD=
EXTT0=
EXTT1=
EXTT2=
EXTT3=
EXTT4=
EXTT5=
EXTT6=
EXTT7=
EXTT8=
EXTT9=
EXTT10=
EXTT11=
EXTT12=
EXTT13=
PLAYORDER=
